<?xml version="1.0" standalone="no"?><!DOCTYPE svg PUBLIC "-//W3C//DTD SVG 1.1//EN" "http://www.w3.org/Graphics/SVG/1.1/DTD/svg11.dtd"><svg t="1765367825882" class="icon" viewBox="0 0 1024 1024" version="1.1" xmlns="http://www.w3.org/2000/svg" p-id="5370" width="128" height="128" xmlns:xlink="http://www.w3.org/1999/xlink"><path d="M165.4784 229.5808l62.1568 1.536c5.5296 22.016 11.0592 44.032 15.9744 66.1504-17.408 9.216-34.7136 18.6368-51.9168 28.3648-11.5712-5.3248-23.1424-10.752-34.7136-16.0768 2.4576-26.7264 5.3248-53.3504 8.4992-79.9744z" fill="#FADD7D" p-id="5371"></path><path d="M312.0128 232.1408c32.768 33.3824 37.7856 83.7632 42.2912 128.1024-1.4336 14.5408-2.7648 29.0816-4.1984 43.7248 24.576 1.536 49.152 3.6864 73.8304 4.1984-25.3952 1.536-50.7904 1.9456-76.0832 1.4336-2.56-38.912-11.1616-77.0048-21.504-114.4832-11.3664 6.2464-22.7328 12.3904-34.0992 18.6368-4.5056 33.28-5.5296 66.8672-3.584 100.4544l-8.6016 14.848c-20.992-65.2288-8.704-141.6192 31.9488-196.9152z" fill="#7B2A09" p-id="5372"></path><path d="M359.424 350.3104c28.5696-64.7168 103.3216-76.5952 165.5808-83.5584 3.9936 3.2768 11.8784 9.6256 15.872 12.9024 5.632 2.8672 16.6912 8.704 22.2208 11.5712h-0.2048c-34.5088-5.0176-70.5536-11.5712-104.6528-1.4336-37.6832 11.1616-69.0176 35.84-98.816 60.5184zM353.3824 476.672c23.04-27.7504 33.792 40.0384 5.12 30.9248-16.5888-0.9216-12.288-22.1184-5.12-30.9248zM415.3344 504.0128c10.4448-17.1008 40.448-1.024 30.208 16.7936-10.0352 12.1856-38.912-0.6144-30.208-16.7936z" fill="#7B2A09" p-id="5373"></path><path d="M458.24 289.792c34.0992-10.1376 70.144-3.584 104.6528 1.4336l8.9088 3.2768c14.7456 12.3904 28.7744 25.6 41.7792 39.8336-0.6144 32.256-9.3184 64.6144-34.6112 86.3232 4.3008 0.2048 12.9024 0.512 17.2032 0.7168l-5.8368 3.584c-52.736-23.3472-110.1824-23.7568-166.4-16.7936-24.6784-0.512-49.2544-2.6624-73.8304-4.1984 1.4336-14.6432 2.7648-29.184 4.1984-43.7248l5.12-9.9328c29.7984-24.6784 61.1328-49.3568 98.816-60.5184z" fill="#8A674A" p-id="5374"></path><path d="M292.2496 313.7536c11.3664-6.2464 22.7328-12.3904 34.0992-18.6368 10.3424 37.4784 18.944 75.5712 21.504 114.4832 25.2928 0.512 50.688 0.1024 76.0832-1.4336 56.2176-6.9632 113.664-6.5536 166.4 16.7936l5.8368-3.584c5.8368-9.216 11.3664-18.5344 16.7936-27.9552 46.08-19.968 94.72-33.3824 144.6912-38.8096 11.9808 10.9568 23.9616 21.8112 35.9424 32.6656-37.9904 21.4016-76.6976 41.2672-116.8384 58.2656 23.3472 61.1328 36.7616 139.8784-17.6128 189.2352-40.1408-11.1616-82.3296 10.3424-120.832-8.2944-2.2528 11.264-4.4032 22.528-6.656 33.792-2.7648-2.56-8.3968-7.68-11.1616-10.24-3.2768-5.7344-9.728-17.3056-13.0048-23.04-17.1008-1.2288-34.2016-2.4576-51.3024-2.9696 2.9696-9.3184 5.9392-18.6368 9.0112-27.9552-35.0208-9.1136-67.1744-25.8048-100.2496-39.936-20.1728-9.8304-41.984-0.2048-61.2352 7.0656-16.0768-14.7456-32.4608-29.184-49.3568-43.1104 11.264-29.7984 24.6784-58.7776 35.0208-88.9856-0.2048-4.1984-0.512-12.6976-0.7168-16.896-1.9456-33.5872-0.9216-67.1744 3.584-100.4544m61.1328 162.9184c-7.168 8.8064-11.4688 30.0032 5.12 30.9248 28.672 9.1136 17.92-58.6752-5.12-30.9248m169.6768 41.472c9.3184-17.5104 8.4992-35.4304-2.4576-51.9168-22.528 13.6192-24.7808 42.2912 2.4576 51.9168m-107.7248-14.1312c-8.704 16.1792 20.1728 28.9792 30.208 16.7936 10.24-17.8176-19.7632-33.8944-30.208-16.7936m180.224 21.0944a40.27392 40.27392 0 0 0-29.2864 47.8208c0.7168 45.1584 77.7216 51.712 89.3952 9.5232 16.896-36.1472-25.7024-71.168-60.1088-57.344z" fill="#FDDA76" p-id="5375"></path><path d="M578.9696 420.6592c25.2928-21.7088 33.9968-54.0672 34.6112-86.3232 4.9152 14.2336 9.4208 28.5696 13.824 43.008 64.1024-37.9904 145.3056-51.8144 215.8592-23.7568-25.2928 57.6512-93.5936 75.9808-147.1488 97.9968 24.1664 61.6448 35.328 147.8656-27.0336 190.976 2.56 14.0288 5.0176 28.0576 7.3728 42.0864 11.776-4.608 23.552-9.1136 35.328-13.7216 0.4096-1.7408 1.024-5.4272 1.3312-7.2704l3.2768-17.408c4.3008 7.9872 13.0048 23.8592 17.408 31.744-11.0592 2.048-33.28 6.2464-44.3392 8.2944l20.6848 15.1552c14.7456-2.7648 29.4912-5.3248 44.3392-7.7824l9.9328-1.4336 3.2768-0.4096c-0.4096 4.4032-1.3312 13.4144-1.7408 17.92-33.4848 2.9696-66.7648 7.7824-99.84 13.2096-12.0832 36.864-53.6576 91.8528-93.9008 53.6576A771.64544 771.64544 0 0 1 348.16 782.336c-25.4976 33.1776-56.32-3.2768-69.0176-28.2624-12.3904-18.944-11.0592-42.1888-9.4208-63.6928 11.6736-2.6624 23.3472-5.2224 35.0208-7.68-0.1024-5.632-0.1024-16.9984-0.1024-22.7328-33.5872-5.632-68.3008-22.4256-79.9744-56.9344-17.3056-36.9664 17.408-67.4816 22.528-102.4 4.1984-26.624 18.432-49.4592 32.8704-71.5776l8.6016-14.848c0.2048 4.1984 0.512 12.6976 0.7168 16.896-10.3424 30.208-23.7568 59.1872-35.0208 88.9856-14.7456 31.0272-23.1424 67.2768-4.7104 98.7136 21.0944 13.1072 44.544 23.04 63.488 39.424 5.632 20.5824 7.7824 41.7792 11.5712 62.7712-14.336-6.2464-27.2384-24.8832-44.6464-17.5104 4.1984 33.9968 25.8048 61.0304 50.3808 83.2512 0.4096-10.5472 1.4336-31.744 1.8432-42.3936 5.9392 7.5776 11.776 15.0528 17.6128 22.6304 73.6256 4.7104 147.456 3.7888 221.0816-1.1264 5.8368-6.5536 11.6736-13.0048 17.5104-19.5584l7.3728 28.16c38.4-5.8368 54.3744-45.6704 68.3008-76.6976-23.552 9.1136-45.3632 21.8112-66.2528 35.9424 17.8176-19.2512 39.1168-34.816 62.8736-45.7728-0.6144-17.7152-1.3312-35.4304-1.6384-53.1456 54.3744-49.3568 40.96-128.1024 17.6128-189.2352 40.1408-16.9984 78.848-36.864 116.8384-58.2656-11.9808-10.8544-23.9616-21.7088-35.9424-32.6656-49.9712 5.4272-98.6112 18.8416-144.6912 38.8096-5.4272 9.4208-10.9568 18.7392-16.7936 27.9552-4.3008-0.2048-12.9024-0.512-17.2032-0.7168m101.0688 279.6544c2.56 2.56 2.56 2.56 0 0z" fill="#942007" p-id="5376"></path><path d="M778.5472 483.4304c47.616-24.576 99.1232-43.008 152.7808-47.3088 11.8784 39.3216 23.8592 78.9504 28.8768 119.9104-44.8512 5.4272-89.6 12.0832-134.656 15.872a694.9888 694.9888 0 0 1 14.5408 63.0784c-26.9312 8.6016-54.0672 17.1008-81.3056 24.8832 1.4336 8.0896 4.1984 24.2688 5.632 32.3584l-9.9328 1.4336c-6.4512-14.7456-12.4928-29.4912-18.432-44.3392 28.5696-8.6016 57.1392-17.3056 85.8112-25.9072-4.4032-19.968-8.6016-39.8336-12.6976-59.8016 17.8176-4.7104 35.6352-9.3184 53.5552-13.824 0.1024-27.9552 0.2048-55.808-0.1024-83.7632-40.96 16.384-80.896 35.2256-119.7056 56.2176 11.264 27.8528 23.6544 55.1936 36.6592 82.2272-20.7872 11.0592-41.7792 22.016-61.8496 34.5088-0.3072 1.7408-1.024 5.4272-1.3312 7.2704l-3.2768 17.408c-5.4272-6.3488-16.4864-19.0464-21.9136-25.3952 24.1664-12.5952 48.0256-25.4976 71.8848-38.6048-11.3664-25.7024-26.8288-50.7904-29.3888-79.36 10.24-17.2032 27.9552-27.4432 44.8512-36.864z" fill="#81240E" p-id="5377"></path><path d="M523.0592 518.144c-27.2384-9.6256-24.9856-38.2976-2.4576-51.9168 10.9568 16.4864 11.776 34.4064 2.4576 51.9168z" fill="#845A1B" p-id="5378"></path><path d="M742.912 522.24c38.8096-20.992 78.7456-39.8336 119.7056-56.2176 0.3072 27.9552 0.2048 55.808 0.1024 83.7632-17.92 4.5056-35.7376 9.1136-53.5552 13.824 4.096 19.968 8.2944 39.8336 12.6976 59.8016-28.672 8.6016-57.2416 17.3056-85.8112 25.9072 5.9392 14.848 11.9808 29.5936 18.432 44.3392-14.848 2.4576-29.5936 5.0176-44.3392 7.7824l-20.6848-15.1552c11.0592-2.048 33.28-6.2464 44.3392-8.2944-4.4032-7.8848-13.1072-23.7568-17.408-31.744 0.3072-1.8432 1.024-5.5296 1.3312-7.2704 20.0704-12.4928 41.0624-23.4496 61.8496-34.5088-13.0048-27.0336-25.3952-54.3744-36.6592-82.2272z" fill="#F9D973" p-id="5379"></path><path d="M595.5584 525.1072c34.4064-13.824 77.0048 21.1968 60.1088 57.344-11.6736 42.1888-88.6784 35.6352-89.3952-9.5232-4.608-21.504 8.0896-42.1888 29.2864-47.8208z" fill="#FA844A" p-id="5380"></path><path d="M254.3616 520.0896c16.896 13.9264 33.28 28.3648 49.3568 43.1104-11.8784 23.8592-29.3888 44.4416-54.0672 55.6032-18.432-31.4368-10.0352-67.6864 4.7104-98.7136z" fill="#FA8048" p-id="5381"></path><path d="M303.7184 563.2c19.2512-7.2704 41.0624-16.896 61.2352-7.0656 33.0752 14.1312 65.2288 30.8224 100.2496 39.936-3.072 9.3184-6.0416 18.6368-9.0112 27.9552-32.6656 2.7648-64.512 10.4448-96.1536 18.6368 2.6624 6.7584 7.8848 20.2752 10.5472 27.136-13.0048-3.1744-26.0096-6.3488-38.912-9.4208 16.9984 9.728 33.9968 19.456 51.0976 29.184-13.7216 3.4816-27.3408 6.8608-40.96 10.3424 7.68 1.8432 23.04 5.4272 30.6176 7.2704 12.4928 18.8416 21.6064 46.4896 47.616 49.664 56.6272 9.1136 104.3456-30.0032 142.6432-66.4576-6.5536-0.7168-19.7632-2.2528-26.4192-2.9696 10.9568-10.1376 22.016-20.1728 33.0752-30.1056-10.6496 2.1504-21.504 4.096-32.256 5.8368l-5.4272-2.8672c2.2528-11.264 4.4032-22.528 6.656-33.792 38.5024 18.6368 80.6912-2.8672 120.832 8.2944 0.3072 17.7152 1.024 35.4304 1.6384 53.1456-23.7568 10.9568-45.056 26.5216-62.8736 45.7728 20.8896-14.1312 42.7008-26.8288 66.2528-35.9424-13.9264 31.0272-29.9008 70.8608-68.3008 76.6976l-7.3728-28.16c-5.8368 6.5536-11.6736 13.0048-17.5104 19.5584-73.6256 4.9152-147.456 5.8368-221.0816 1.1264-5.8368-7.5776-11.6736-15.0528-17.6128-22.6304-0.4096 10.6496-1.4336 31.8464-1.8432 42.3936-24.576-22.2208-46.1824-49.2544-50.3808-83.2512 17.408-7.3728 30.3104 11.264 44.6464 17.5104-3.7888-20.992-5.9392-42.1888-11.5712-62.7712-18.944-16.384-42.3936-26.3168-63.488-39.424 24.6784-11.1616 42.1888-31.744 54.0672-55.6032z" fill="#FBC858" p-id="5382"></path><path d="M360.0384 642.6624c31.6416-8.192 63.488-15.872 96.1536-18.6368 17.1008 0.512 34.2016 1.7408 51.3024 2.9696 3.2768 5.7344 9.728 17.3056 13.0048 23.04 2.7648 2.56 8.3968 7.68 11.1616 10.24l5.4272 2.8672c10.752-1.7408 21.6064-3.6864 32.256-5.8368-11.0592 9.9328-22.1184 19.968-33.0752 30.1056 6.656 0.7168 19.8656 2.2528 26.4192 2.9696-38.2976 36.4544-86.016 75.5712-142.6432 66.4576-26.0096-3.1744-35.1232-30.8224-47.616-49.664-7.5776-1.8432-22.9376-5.4272-30.6176-7.2704 13.6192-3.4816 27.2384-6.8608 40.96-10.3424-17.1008-9.728-34.0992-19.456-51.0976-29.184 12.9024 3.072 25.9072 6.2464 38.912 9.4208-2.6624-6.8608-7.8848-20.3776-10.5472-27.136m29.184 5.632c3.4816 27.7504 3.7888 57.0368 17.2032 82.2272 25.1904 14.0288 54.9888 5.632 82.1248 4.608 3.1744-29.184 6.5536-58.2656 10.0352-87.4496-36.352-3.7888-73.0112-3.3792-109.3632 0.6144z" fill="#8D643D" p-id="5383"></path><path d="M389.2224 648.2944c36.352-3.9936 73.0112-4.4032 109.3632-0.6144-3.4816 29.184-6.8608 58.2656-10.0352 87.4496-27.136 1.024-56.9344 9.4208-82.1248-4.608-13.4144-25.1904-13.7216-54.4768-17.2032-82.2272z" fill="#85837C" p-id="5384"></path><path d="M680.0384 700.3136c2.56 2.56 2.56 2.56 0 0z" fill="#F7BD8D" p-id="5385"></path></svg>